<svg width="106" height="32" viewBox="0 0 96 32" fill="none" xmlns="http://www.w3.org/2000/svg"><path d="M88.3552 0.000104H7.64916C7.35497 0.000104 7.06432 0.000104 6.77091 0.001704C6.52531 0.003304 6.28166 0.007952 6.03369 0.011864C5.49499 0.0181854 4.95756 0.065445 4.42607 0.153232C3.89532 0.24293 3.3812 0.412037 2.9011 0.654832C2.42158 0.899681 1.98343 1.21784 1.60254 1.59776C1.21966 1.97661 0.900491 2.41452 0.65732 2.89463C0.413478 3.37379 0.244397 3.88726 0.155916 4.41729C0.0665952 4.94665 0.0185306 5.48212 0.012154 6.01889C0.00470918 6.26417 0.00392298 6.51026 0 6.75558V25.247C0.00392298 25.4954 0.00470918 25.736 0.012154 25.9845C0.0185325 26.5212 0.0665971 27.0567 0.155916 27.586C0.244152 28.1164 0.413243 28.6301 0.65732 29.1095C0.900381 29.588 1.21959 30.0242 1.60254 30.4009C1.98198 30.7825 2.42042 31.1009 2.9011 31.3439C3.3812 31.5873 3.89526 31.7574 4.42607 31.8485C4.95765 31.9356 5.49503 31.9829 6.03369 31.9899C6.28166 31.9954 6.52531 31.9985 6.77091 31.9985C7.06431 32.0001 7.35499 32.0001 7.64916 32.0001H88.3552C88.6435 32.0001 88.9365 32.0001 89.2248 31.9985C89.4692 31.9985 89.7199 31.9954 89.9644 31.9899C90.502 31.9832 91.0384 31.936 91.5689 31.8485C92.1014 31.7568 92.6173 31.5867 93.0997 31.3439C93.58 31.1007 94.018 30.7824 94.3971 30.4009C94.7791 30.0227 95.099 29.5869 95.345 29.1095C95.5873 28.6298 95.7548 28.1161 95.8417 27.586C95.9312 27.0566 95.9809 26.5213 95.9906 25.9845C95.9937 25.736 95.9937 25.4954 95.9937 25.247C96 24.9563 96 24.6673 96 24.3719V7.62901C96 7.33604 96 7.04542 95.9937 6.75558C95.9937 6.51026 95.9937 6.26417 95.9906 6.01886C95.9809 5.48204 95.9312 4.94669 95.8417 4.41726C95.7545 3.88753 95.5871 3.37411 95.345 2.8946C94.8498 1.93226 94.0646 1.14892 93.0997 0.65476C92.6173 0.412558 92.1013 0.243496 91.5689 0.15316C91.0385 0.0649862 90.5021 0.0177102 89.9644 0.011752C89.7199 0.007848 89.4692 0.00316 89.2248 0.0016C88.9365 0 88.6435 0 88.3552 0V0.000104Z" fill="black"></path><path d="M6.77564 31.3002C6.53121 31.3002 6.29268 31.2971 6.05017 31.2916C5.54779 31.2851 5.04658 31.2415 4.55066 31.1612C4.08824 31.0817 3.64028 30.934 3.22155 30.7228C2.80666 30.5134 2.42825 30.2388 2.10081 29.9096C1.76863 29.5842 1.49208 29.2068 1.28211 28.7924C1.06983 28.3752 0.922915 27.9281 0.846491 27.4666C0.763959 26.9707 0.719306 26.4692 0.712917 25.9666C0.707831 25.7979 0.701172 25.2361 0.701172 25.2361V6.75567C0.701172 6.75567 0.708264 6.20254 0.712957 6.04004C0.719075 5.53818 0.763468 5.03752 0.845753 4.54238C0.922318 4.0796 1.06934 3.63119 1.28174 3.2127C1.49094 2.79855 1.76596 2.42088 2.09613 2.09434C2.42594 1.76469 2.80556 1.48868 3.22116 1.27636C3.63892 1.06587 4.08604 0.919181 4.54753 0.841211C5.04508 0.760064 5.54802 0.716192 6.05215 0.709963L6.77603 0.700195H89.2217L89.9542 0.710355C90.4538 0.716275 90.9522 0.759755 91.4451 0.840427C91.9113 0.919375 92.3631 1.06709 92.7856 1.27871C93.6182 1.70658 94.2957 2.38353 94.723 3.21465C94.9321 3.63026 95.0768 4.075 95.1524 4.53379C95.2357 5.03299 95.2823 5.53759 95.2918 6.04356C95.2942 6.27012 95.2942 6.51348 95.2942 6.75567C95.3005 7.05567 95.3005 7.34121 95.3005 7.6291V24.372C95.3005 24.6627 95.3005 24.9463 95.2942 25.2322C95.2942 25.4924 95.2942 25.7307 95.291 25.976C95.2817 26.4729 95.2358 26.9685 95.1539 27.4588C95.0791 27.9236 94.933 28.3742 94.7207 28.7948C94.5093 29.2047 94.2343 29.5788 93.906 29.9033C93.5782 30.2343 93.1991 30.5106 92.7833 30.7213C92.3619 30.9341 91.9108 31.0824 91.4451 31.1612C90.9493 31.2419 90.448 31.2855 89.9456 31.2916C89.7106 31.2971 89.4646 31.3002 89.2256 31.3002L88.356 31.3018L6.77564 31.3002Z" fill="white"></path><path d="M20.0537 15.9116C20.0626 15.2172 20.2476 14.5364 20.5913 13.9324C20.9351 13.3285 21.4264 12.8211 22.0196 12.4574C21.6428 11.9207 21.1456 11.479 20.5676 11.1674C19.9896 10.8558 19.3467 10.6829 18.69 10.6624C17.2891 10.5157 15.931 11.4983 15.2171 11.4983C14.4894 11.4983 13.3903 10.6769 12.2067 10.7012C11.4411 10.7259 10.695 10.9479 10.041 11.3456C9.38709 11.7433 8.8476 12.3031 8.47514 12.9706C6.86173 15.7562 8.06519 19.8501 9.61072 22.1018C10.384 23.2044 11.2877 24.436 12.4702 24.3923C13.6274 24.3444 14.0596 23.6565 15.4563 23.6565C16.8402 23.6565 17.2456 24.3923 18.4522 24.3645C19.6938 24.3444 20.4762 23.2571 21.2223 22.144C21.7779 21.3584 22.2054 20.4901 22.4891 19.5713C21.7677 19.2671 21.1521 18.7578 20.719 18.107C20.2859 17.4562 20.0545 16.6926 20.0537 15.9116Z" fill="black"></path><path d="M17.7748 9.18126C18.4519 8.3708 18.7854 7.32908 18.7046 6.27734C17.6703 6.38568 16.7149 6.87863 16.0287 7.658C15.6932 8.03874 15.4363 8.48168 15.2726 8.96151C15.1088 9.44133 15.0416 9.94863 15.0746 10.4544C15.5919 10.4597 16.1037 10.3479 16.5715 10.1274C17.0392 9.90683 17.4507 9.58334 17.7748 9.18126Z" fill="black"></path><path d="M33.9368 21.7121H30.1395L29.2275 24.3973H27.6191L31.2159 14.4629H32.887L36.4838 24.3973H34.848L33.9368 21.7121ZM30.5328 20.4731H33.5428L32.0589 16.1153H32.0174L30.5328 20.4731Z" fill="black"></path><path d="M44.252 20.7761C44.252 23.0269 43.0439 24.473 41.2208 24.473C40.759 24.4971 40.2997 24.391 39.8956 24.1669C39.4914 23.9428 39.1587 23.6097 38.9355 23.2058H38.901V26.7933H37.4102V17.1543H38.8533V18.359H38.8807C39.1141 17.957 39.4524 17.6256 39.8597 17.4002C40.2669 17.1747 40.7278 17.0635 41.1934 17.0785C43.0369 17.0785 44.252 18.5316 44.252 20.7761ZM42.7196 20.7761C42.7196 19.3097 41.9596 18.3457 40.8001 18.3457C39.661 18.3457 38.8948 19.3301 38.8948 20.7761C38.8948 22.2355 39.661 23.2129 40.8001 23.2129C41.9596 23.2129 42.7195 22.2558 42.7195 20.7761H42.7196Z" fill="black"></path><path d="M52.2465 20.7761C52.2465 23.0269 51.038 24.473 49.215 24.473C48.7532 24.4971 48.2939 24.391 47.8897 24.1669C47.4855 23.9428 47.1528 23.6097 46.9297 23.2058H46.8952V26.7933H45.4043V17.1543H46.8474V18.359H46.8748C47.1082 17.957 47.4466 17.6256 47.8538 17.4002C48.261 17.1747 48.722 17.0635 49.1875 17.0785C51.031 17.0785 52.2465 18.5316 52.2465 20.7761ZM50.7137 20.7761C50.7137 19.3097 49.9538 18.3457 48.7943 18.3457C47.6551 18.3457 46.8889 19.3301 46.8889 20.7761C46.8889 22.2355 47.6551 23.2129 48.7943 23.2129C49.9538 23.2129 50.7137 22.2558 50.7137 20.7761Z" fill="black"></path><path d="M57.5281 21.629C57.6386 22.6141 58.5983 23.261 59.9098 23.261C61.1664 23.261 62.0705 22.6141 62.0705 21.7258C62.0705 20.9547 61.5253 20.493 60.2342 20.1766L58.943 19.8664C57.1137 19.4258 56.2644 18.5727 56.2644 17.1883C56.2644 15.4742 57.7624 14.2969 59.8887 14.2969C61.9946 14.2969 63.4377 15.4742 63.4862 17.1883H61.9812C61.8911 16.1969 61.0693 15.5984 59.8683 15.5984C58.6673 15.5984 57.8454 16.2039 57.8454 17.0852C57.8454 17.7875 58.3703 18.2008 59.6544 18.5172L60.752 18.7859C62.796 19.268 63.6445 20.0867 63.6445 21.5398C63.6445 23.3984 62.1606 24.5625 59.7993 24.5625C57.59 24.5625 56.0983 23.4258 56.002 21.6289L57.5281 21.629Z" fill="black"></path><path d="M66.8646 15.4395V17.1535H68.2458V18.3309H66.8646V22.3238C66.8646 22.9441 67.1411 23.2332 67.7483 23.2332C67.9123 23.2304 68.076 23.2189 68.2387 23.1988V24.3691C67.9657 24.42 67.6883 24.443 67.4106 24.4379C65.9401 24.4379 65.3666 23.8871 65.3666 22.4824V18.3309H64.3105V17.1535H65.3666V15.4395H66.8646Z" fill="black"></path><path d="M69.0449 20.7754C69.0449 18.4965 70.3909 17.0645 72.4897 17.0645C74.5956 17.0645 75.9353 18.4965 75.9353 20.7754C75.9353 23.0606 74.6027 24.4863 72.4897 24.4863C70.3775 24.4863 69.0449 23.0605 69.0449 20.7754ZM74.4162 20.7754C74.4162 19.2121 73.6978 18.2895 72.4897 18.2895C71.2816 18.2895 70.5632 19.2191 70.5632 20.7754C70.5632 22.3449 71.2816 23.2606 72.4897 23.2606C73.6978 23.2606 74.4162 22.3449 74.4162 20.7754H74.4162Z" fill="black"></path><path d="M77.1641 17.1542H78.586V18.387H78.6205C78.7167 18.002 78.9429 17.6617 79.2611 17.4234C79.5792 17.1851 79.97 17.0633 80.3676 17.0784C80.5394 17.0778 80.7107 17.0964 80.8784 17.1339V18.5245C80.6615 18.4584 80.4352 18.4281 80.2085 18.4347C79.9919 18.4259 79.776 18.464 79.5756 18.5463C79.3751 18.6286 79.1949 18.7532 79.0473 18.9115C78.8998 19.0698 78.7883 19.2581 78.7205 19.4634C78.6528 19.6688 78.6304 19.8863 78.655 20.1011V24.3972H77.1641L77.1641 17.1542Z" fill="black"></path><path d="M87.7531 22.2691C87.5525 23.584 86.2685 24.4863 84.6256 24.4863C82.5126 24.4863 81.2012 23.0746 81.2012 20.8098C81.2012 18.5379 82.5197 17.0645 84.5629 17.0645C86.5725 17.0645 87.8362 18.441 87.8362 20.6371V21.1465H82.7062V21.2363C82.6825 21.5029 82.716 21.7714 82.8043 22.0241C82.8927 22.2768 83.034 22.5078 83.2188 22.7018C83.4036 22.8959 83.6277 23.0485 83.8762 23.1495C84.1247 23.2506 84.3919 23.2977 84.6601 23.2879C85.0124 23.3208 85.3659 23.2394 85.6682 23.0559C85.9704 22.8723 86.2051 22.5964 86.3374 22.2691L87.7531 22.2691ZM82.7132 20.1074H86.3445C86.3579 19.8677 86.3214 19.6279 86.2374 19.4029C86.1535 19.178 86.0238 18.9727 85.8565 18.8001C85.6892 18.6275 85.4879 18.4912 85.2653 18.3999C85.0427 18.3085 84.8036 18.264 84.5629 18.2691C84.3201 18.2677 84.0795 18.3142 83.8548 18.406C83.6301 18.4978 83.4259 18.6331 83.254 18.804C83.082 18.9749 82.9457 19.178 82.8529 19.4018C82.7601 19.6255 82.7126 19.8653 82.7132 20.1074V20.1074Z" fill="black"></path><path d="M28.6172 11.7578V6.98438H30.5413C31.4407 6.98438 31.9813 7.44062 31.9813 8.175C31.9815 8.41624 31.8981 8.65014 31.7452 8.83708C31.5922 9.02402 31.3792 9.15251 31.1422 9.20078V9.25703C31.4363 9.2709 31.7134 9.39852 31.9147 9.6128C32.1159 9.82707 32.2256 10.1111 32.2202 10.4047C32.2202 11.2449 31.6068 11.7578 30.5844 11.7578L28.6172 11.7578ZM29.3607 9.00543H30.2428C30.9001 9.00543 31.2417 8.76402 31.2417 8.3109C31.2417 7.87067 30.9197 7.61285 30.369 7.61285H29.3607V9.00543ZM30.4356 11.1293C31.1054 11.1293 31.4603 10.8578 31.4603 10.3519C31.4603 9.85231 31.0921 9.59098 30.3925 9.59098H29.3607V11.1293H30.4356Z" fill="black"></path><path d="M32.9844 10.7391C32.9844 10.0906 33.4685 9.71679 34.328 9.66366L35.3065 9.60742V9.29648C35.3065 8.91601 35.0542 8.70117 34.5669 8.70117C34.1689 8.70117 33.8932 8.84687 33.814 9.10156H33.1238C33.1967 8.48281 33.7804 8.08594 34.5998 8.08594C35.5055 8.08594 36.0163 8.53554 36.0163 9.29648V11.7578H35.33V11.2516H35.2736C35.1591 11.4332 34.9983 11.5812 34.8077 11.6806C34.6171 11.7799 34.4034 11.8271 34.1885 11.8172C34.0369 11.8329 33.8836 11.8168 33.7386 11.7698C33.5936 11.7228 33.46 11.6461 33.3466 11.5445C33.2331 11.4429 33.1423 11.3188 33.0799 11.1801C33.0175 11.0413 32.985 10.8911 32.9844 10.7391ZM35.3065 10.4312V10.1301L34.4243 10.1863C33.9268 10.2195 33.7012 10.3883 33.7012 10.7058C33.7012 11.0301 33.9833 11.2187 34.3711 11.2187C34.4847 11.2302 34.5995 11.2188 34.7086 11.1851C34.8177 11.1514 34.9189 11.0962 35.0062 11.0227C35.0935 10.9493 35.165 10.859 35.2166 10.7574C35.2682 10.6558 35.2988 10.5449 35.3065 10.4312Z" fill="black"></path><path d="M37.0399 7.09049C37.0344 6.99841 37.0567 6.90681 37.1041 6.82754C37.1514 6.74828 37.2215 6.68501 37.3052 6.64592C37.389 6.60684 37.4827 6.59375 37.574 6.60834C37.6653 6.62293 37.7502 6.66454 37.8175 6.72776C37.8849 6.79099 37.9316 6.87293 37.9518 6.96297C37.9719 7.053 37.9644 7.14699 37.9303 7.23275C37.8963 7.31851 37.8372 7.39209 37.7607 7.44396C37.6842 7.49584 37.5938 7.52361 37.5013 7.52369C37.4422 7.5267 37.3831 7.51775 37.3275 7.49739C37.272 7.47703 37.2211 7.44567 37.178 7.40521C37.1349 7.36474 37.1004 7.316 37.0767 7.26192C37.053 7.20783 37.0404 7.14952 37.0399 7.09049ZM37.1456 8.15573H37.8562V11.7581H37.1456L37.1456 8.15573Z" fill="black"></path><path d="M40.3013 10.4807L39.5116 11.7576H38.7289L39.9268 9.96465L38.7188 8.15527H39.5516L40.3279 9.42559H40.3844L41.1537 8.15527H41.9466L40.7557 9.93496L41.9599 11.7576H41.1411L40.3546 10.4807H40.3013Z" fill="black"></path><path d="M42.5898 10.7391C42.5898 10.0906 43.074 9.71679 43.9334 9.66366L44.912 9.60742V9.29648C44.912 8.91601 44.6597 8.70117 44.1724 8.70117C43.7744 8.70117 43.4986 8.84687 43.4195 9.10156H42.7293C42.8022 8.48281 43.3858 8.08594 44.2053 8.08594C45.111 8.08594 45.6218 8.53554 45.6218 9.29648V11.7578H44.9355V11.2516H44.8791C44.7646 11.4332 44.6038 11.5812 44.4132 11.6806C44.2225 11.7799 44.0089 11.8271 43.794 11.8172C43.6423 11.8329 43.4891 11.8168 43.3441 11.7698C43.199 11.7228 43.0655 11.6461 42.9521 11.5445C42.8386 11.4429 42.7478 11.3188 42.6854 11.1801C42.623 11.0413 42.5904 10.8911 42.5898 10.7391ZM44.912 10.4312V10.1301L44.0298 10.1863C43.5323 10.2195 43.3067 10.3883 43.3067 10.7058C43.3067 11.0301 43.5887 11.2187 43.9766 11.2187C44.0902 11.2302 44.205 11.2188 44.3141 11.1851C44.4232 11.1514 44.5244 11.0962 44.6117 11.0227C44.699 10.9493 44.7705 10.859 44.8221 10.7574C44.8737 10.6558 44.9043 10.5449 44.912 10.4312Z" fill="black"></path><path d="M46.7383 8.15573H47.4246V8.70807H47.4779C47.5547 8.51633 47.6905 8.3538 47.8657 8.24383C48.041 8.13385 48.2467 8.08208 48.4532 8.09596C48.56 8.09453 48.6667 8.10448 48.7713 8.12565V8.82725C48.6405 8.79937 48.5071 8.78497 48.3733 8.78428C48.2557 8.77375 48.1373 8.78787 48.0255 8.82572C47.9137 8.86358 47.8111 8.92433 47.7242 9.00409C47.6374 9.08385 47.5682 9.18084 47.5212 9.28883C47.4742 9.39682 47.4504 9.51342 47.4512 9.63115V11.7581H46.7383L46.7383 8.15573Z" fill="black"></path><path d="M51.5195 8.15609H52.2063V8.72835H52.2595C52.3499 8.52282 52.5023 8.35052 52.6956 8.23547C52.8888 8.12043 53.1132 8.06837 53.3375 8.08655C53.5133 8.07338 53.6898 8.0998 53.8539 8.16388C54.0181 8.22796 54.1656 8.32804 54.2857 8.45672C54.4058 8.58539 54.4953 8.73936 54.5476 8.90722C54.5999 9.07507 54.6137 9.25251 54.5879 9.42639V11.7584H53.875V9.60492C53.875 9.02602 53.6227 8.73812 53.0955 8.73812C52.9761 8.73258 52.857 8.75283 52.7462 8.7975C52.6355 8.84216 52.5357 8.91018 52.4538 8.99689C52.3719 9.0836 52.3097 9.18694 52.2716 9.29985C52.2334 9.41275 52.2202 9.53254 52.2329 9.65101V11.7584H51.5196L51.5195 8.15609Z" fill="black"></path><path d="M55.4844 10.7391C55.4844 10.0906 55.9685 9.71679 56.828 9.66366L57.8065 9.60742V9.29648C57.8065 8.91601 57.5542 8.70117 57.0669 8.70117C56.6689 8.70117 56.3932 8.84687 56.314 9.10156H55.6238C55.6967 8.48281 56.2804 8.08594 57.0998 8.08594C58.0055 8.08594 58.5163 8.53554 58.5163 9.29648V11.7578H57.83V11.2516H57.7736C57.6591 11.4332 57.4983 11.5812 57.3077 11.6806C57.1171 11.7799 56.9034 11.8271 56.6885 11.8172C56.5369 11.8329 56.3836 11.8168 56.2386 11.7698C56.0936 11.7228 55.96 11.6461 55.8466 11.5445C55.7331 11.4429 55.6423 11.3188 55.5799 11.1801C55.5175 11.0413 55.485 10.8911 55.4844 10.7391ZM57.8065 10.4312V10.1301L56.9243 10.1863C56.4269 10.2195 56.2012 10.3883 56.2012 10.7058C56.2012 11.0301 56.4833 11.2187 56.8711 11.2187C56.9847 11.2302 57.0995 11.2188 57.2086 11.1851C57.3177 11.1514 57.4189 11.0962 57.5062 11.0227C57.5935 10.9493 57.665 10.859 57.7166 10.7574C57.7682 10.6558 57.7988 10.5449 57.8065 10.4312H57.8065Z" fill="black"></path></svg>