<svg width="106" height="32" viewBox="0 0 106 32" fill="none" xmlns="http://www.w3.org/2000/svg"><path d="M102.074 32H3.92593C1.76667 32 0 30.2 0 28V4C0 1.8 1.76667 0 3.92593 0H102.074C104.233 0 106 1.8 106 4V28C106 30.2 104.233 32 102.074 32Z" fill="black"></path><path d="M53.5031 17.3996C51.6579 17.3996 50.1504 18.8316 50.1504 20.7996C50.1504 22.7596 51.6579 24.1996 53.5031 24.1996C55.3483 24.1996 56.8559 22.7596 56.8559 20.7996C56.8559 18.8316 55.3483 17.3996 53.5031 17.3996ZM53.5031 22.8636C52.4902 22.8636 51.6187 22.0156 51.6187 20.7996C51.6187 19.5756 52.4902 18.7356 53.5031 18.7356C54.516 18.7356 55.3876 19.5756 55.3876 20.7996C55.3876 22.0156 54.5082 22.8636 53.5031 22.8636ZM46.1852 17.3996C44.34 17.3996 42.8325 18.8316 42.8325 20.7996C42.8325 22.7596 44.34 24.1996 46.1852 24.1996C48.0304 24.1996 49.5379 22.7596 49.5379 20.7996C49.5379 18.8316 48.0304 17.3996 46.1852 17.3996ZM46.1852 22.8636C45.1723 22.8636 44.3008 22.0156 44.3008 20.7996C44.3008 19.5756 45.1723 18.7356 46.1852 18.7356C47.1981 18.7356 48.0696 19.5756 48.0696 20.7996C48.0696 22.0156 47.1981 22.8636 46.1852 22.8636ZM37.4853 18.4476V19.8876H40.8773C40.7753 20.6956 40.5083 21.2956 40.1079 21.7036C39.6132 22.2076 38.8437 22.7596 37.4932 22.7596C35.4046 22.7596 33.7714 21.0476 33.7714 18.9196C33.7714 16.7916 35.4046 15.0796 37.4932 15.0796C38.616 15.0796 39.4405 15.5276 40.0451 16.1116L41.0422 15.0956C40.1942 14.2716 39.0714 13.6396 37.4853 13.6396C34.6273 13.6396 32.2246 16.0076 32.2246 18.9276C32.2246 21.8396 34.6273 24.2156 37.4853 24.2156C39.0322 24.2156 40.1942 23.7036 41.105 22.7356C42.0394 21.7836 42.3299 20.4396 42.3299 19.3596C42.3299 19.0236 42.3064 18.7116 42.2514 18.4556H37.4853V18.4476ZM73.0621 19.5676C72.7873 18.8076 71.9393 17.3996 70.204 17.3996C68.4845 17.3996 67.0554 18.7756 67.0554 20.7996C67.0554 22.7036 68.4687 24.1996 70.3689 24.1996C71.9 24.1996 72.7873 23.2476 73.1484 22.6956L72.0099 21.9196C71.633 22.4876 71.1148 22.8636 70.3689 22.8636C69.623 22.8636 69.089 22.5116 68.7514 21.8316L73.2191 19.9516L73.0621 19.5676ZM68.508 20.7036C68.4687 19.3916 69.5052 18.7196 70.2511 18.7196C70.8322 18.7196 71.3268 19.0156 71.4917 19.4396L68.508 20.7036ZM64.8804 23.9996H66.3487V13.9996H64.8804V23.9996ZM62.4778 18.1596H62.4228C62.093 17.7596 61.4649 17.3996 60.664 17.3996C58.9916 17.3996 57.4605 18.8956 57.4605 20.8156C57.4605 22.7196 58.9916 24.2076 60.664 24.2076C61.457 24.2076 62.093 23.8476 62.4228 23.4316H62.4699V23.9196C62.4699 25.2236 61.7868 25.9196 60.6876 25.9196C59.7925 25.9196 59.235 25.2636 59.0073 24.7116L57.7274 25.2556C58.0964 26.1596 59.0701 27.2636 60.6876 27.2636C62.4071 27.2636 63.8597 26.2316 63.8597 23.7196V17.6076H62.4699V18.1596H62.4778ZM60.7896 22.8636C59.7767 22.8636 58.9288 21.9996 58.9288 20.8156C58.9288 19.6156 59.7767 18.7436 60.7896 18.7436C61.7868 18.7436 62.572 19.6236 62.572 20.8156C62.5799 21.9996 61.7947 22.8636 60.7896 22.8636ZM79.9403 13.9996H76.4305V23.9996H77.8988V20.2076H79.9481C81.5735 20.2076 83.1674 19.0076 83.1674 17.1036C83.1674 15.1996 81.5578 13.9996 79.9403 13.9996ZM79.9717 18.8156H77.891V15.3836H79.9717C81.071 15.3836 81.6913 16.3116 81.6913 17.0956C81.6913 17.8796 81.071 18.8156 79.9717 18.8156ZM89.0327 17.3836C87.9727 17.3836 86.8735 17.8636 86.4181 18.9116L87.7215 19.4636C87.9963 18.9116 88.5145 18.7276 89.0563 18.7276C89.8179 18.7276 90.5874 19.1916 90.5953 20.0156V20.1196C90.3283 19.9676 89.763 19.7356 89.0641 19.7356C87.6587 19.7356 86.2375 20.5196 86.2375 21.9836C86.2375 23.3196 87.3839 24.1836 88.6716 24.1836C89.653 24.1836 90.2027 23.7356 90.5403 23.2076H90.5874V23.9836H92.0007V20.1516C92.0086 18.3756 90.7052 17.3836 89.0327 17.3836ZM88.8521 22.8636C88.3732 22.8636 87.7058 22.6156 87.7058 22.0156C87.7058 21.2476 88.5381 20.9516 89.2604 20.9516C89.9043 20.9516 90.2105 21.0956 90.5953 21.2876C90.4853 22.2076 89.7001 22.8636 88.8521 22.8636ZM97.1594 17.5996L95.4791 21.9356H95.432L93.6889 17.5996H92.1107L94.7253 23.6636L93.2335 27.0316H94.7646L98.7926 17.5996H97.1594ZM83.9683 23.9996H85.4366V13.9996H83.9683V23.9996Z" fill="white"></path><path d="M8.19712 6.03159C7.96942 6.27959 7.83594 6.66359 7.83594 7.15159V24.8476C7.83594 25.3436 7.96942 25.7276 8.19712 25.9676L8.25209 26.0236L17.9805 16.1196V15.9996V15.8796L8.25209 5.97559L8.19712 6.03159Z" fill="url(#paint0_linear)"></path><path d="M21.2233 19.4242L17.9805 16.1202V16.0002V15.8802L21.2233 12.5762L21.294 12.6162L25.1335 14.8402C26.2328 15.4722 26.2328 16.5122 25.1335 17.1522L21.294 19.3762L21.2233 19.4242Z" fill="url(#paint1_linear)"></path><path d="M21.2961 19.384L17.9826 16L8.19922 25.968C8.5604 26.36 9.15715 26.408 9.8324 26.016L21.2961 19.384Z" fill="url(#paint2_linear)"></path><path d="M21.2962 12.624L9.82459 5.98399C9.14933 5.59199 8.55259 5.63999 8.19141 6.03199L17.9827 16L21.2962 12.624Z" fill="url(#paint3_linear)"></path><path opacity="0.2" d="M21.2235 19.3037L9.8226 25.9037C9.1866 26.2717 8.61341 26.2477 8.25223 25.9117L8.19727 25.9677L8.25223 26.0237C8.62127 26.3597 9.1866 26.3837 9.8226 26.0157L21.2942 19.3757L21.2235 19.3037Z" fill="black"></path><path opacity="0.12" d="M8.19828 25.8554C7.96985 25.6074 7.83594 25.2234 7.83594 24.7354V24.8554C7.83594 25.3514 7.96985 25.7354 8.19828 25.9754L8.25342 25.9194L8.19828 25.8554Z" fill="black"></path><path opacity="0.12" d="M25.1329 17.04L21.2148 19.304L21.2855 19.376L25.1251 17.152C25.6747 16.832 25.9495 16.416 25.9495 16C25.9103 16.376 25.6354 16.752 25.1329 17.04Z" fill="black"></path><path opacity="0.25" d="M9.8225 6.09888L25.1336 14.9629C25.6283 15.2509 25.9109 15.6189 25.9581 16.0029C25.9581 15.5869 25.6832 15.1629 25.1336 14.8509L9.8225 5.98688C8.72324 5.35488 7.82812 5.88288 7.82812 7.16288V7.28288C7.82813 5.99488 8.73109 5.46688 9.8225 6.09888Z" fill="white"></path><path d="M32.459 10.4006V5.60059H33.8959C34.6182 5.60059 35.1993 5.82459 35.6311 6.26459C36.063 6.71259 36.2828 7.28859 36.2828 8.00059C36.2828 8.71259 36.063 9.28859 35.6311 9.73659C35.1993 10.1766 34.6182 10.4006 33.8959 10.4006H32.459ZM33.0636 9.80859H33.8959C34.4377 9.80859 34.8695 9.64859 35.1914 9.32859C35.5134 9.00859 35.6704 8.56859 35.6704 7.99259C35.6704 7.42459 35.5134 6.98459 35.1914 6.66459C34.8695 6.34459 34.4455 6.18459 33.8959 6.18459H33.0636V9.80859Z" fill="white" stroke="white" stroke-width="0.2" stroke-miterlimit="10"></path><path d="M37.1387 10.4006V5.60059H37.7452V10.4006H37.1387Z" fill="white" stroke="white" stroke-width="0.2" stroke-miterlimit="10"></path><path d="M40.145 10.5043C39.7995 10.5043 39.4697 10.3923 39.1399 10.1603C38.8102 9.92828 38.5982 9.61628 38.4961 9.20028L39.0457 8.97628C39.1085 9.24028 39.242 9.46428 39.4462 9.64028C39.6503 9.82428 39.878 9.91228 40.1371 9.91228C40.3962 9.91228 40.624 9.84028 40.8124 9.70428C41.0008 9.56028 41.0951 9.37628 41.0951 9.12828C41.0951 8.86428 41.0008 8.65628 40.8124 8.51228C40.624 8.36828 40.3334 8.23228 39.9251 8.10428C39.509 7.96828 39.1949 7.80028 38.9751 7.58428C38.7631 7.36828 38.6531 7.10428 38.6531 6.76828C38.6531 6.42428 38.7866 6.12828 39.0536 5.87228C39.3205 5.61628 39.6739 5.48828 40.0979 5.48828C40.4983 5.48828 40.8202 5.59228 41.0715 5.79228C41.3228 5.99228 41.4877 6.21628 41.5583 6.45628L41.0087 6.68828C40.9694 6.53628 40.8752 6.39228 40.7182 6.26428C40.5611 6.13628 40.3648 6.07228 40.1136 6.07228C39.878 6.07228 39.6817 6.13628 39.5168 6.27228C39.3519 6.40828 39.2734 6.56828 39.2734 6.76828C39.2734 6.94428 39.3519 7.09628 39.5011 7.22428C39.6503 7.34428 39.878 7.45628 40.1685 7.55228C40.4041 7.63228 40.5925 7.70428 40.7496 7.77628C40.9066 7.84828 41.0637 7.94428 41.2207 8.06428C41.3777 8.18428 41.5034 8.32828 41.5819 8.50428C41.6604 8.68028 41.7075 8.88828 41.7075 9.12028C41.7075 9.35228 41.6604 9.56028 41.5662 9.74428C41.472 9.92828 41.3463 10.0723 41.1893 10.1763C41.0322 10.2803 40.8674 10.3683 40.6868 10.4243C40.5219 10.4803 40.3334 10.5043 40.145 10.5043Z" fill="white" stroke="white" stroke-width="0.2" stroke-miterlimit="10"></path><path d="M43.1925 10.4006H42.5879V5.60059H44.1897C44.5901 5.60059 44.9356 5.73659 45.2261 6.00859C45.5166 6.28059 45.6658 6.61659 45.6658 7.03259C45.6658 7.44059 45.5166 7.78459 45.2261 8.05659C44.9356 8.32859 44.5901 8.46459 44.1897 8.46459H43.1925V10.4006ZM43.1925 7.86459H44.2054C44.4566 7.86459 44.6608 7.77659 44.8178 7.60059C44.9748 7.42459 45.0455 7.23259 45.0455 7.02459C45.0455 6.81659 44.967 6.62459 44.8178 6.44859C44.6608 6.27259 44.4566 6.18459 44.2054 6.18459H43.1925V7.86459Z" fill="white" stroke="white" stroke-width="0.2" stroke-miterlimit="10"></path><path d="M50.2825 9.77609C49.8192 10.2641 49.246 10.5041 48.5551 10.5041C47.8641 10.5041 47.2909 10.2641 46.8277 9.77609C46.3644 9.28809 46.1367 8.69609 46.1367 8.00009C46.1367 7.30409 46.3644 6.70409 46.8277 6.22409C47.2909 5.73609 47.8641 5.49609 48.5551 5.49609C49.2382 5.49609 49.8114 5.73609 50.2825 6.22409C50.7457 6.71209 50.9813 7.30409 50.9813 8.00009C50.9813 8.70409 50.7457 9.29609 50.2825 9.77609ZM47.2752 9.37609C47.6207 9.73609 48.0526 9.91209 48.5551 9.91209C49.0576 9.91209 49.4895 9.73609 49.8349 9.37609C50.1804 9.01609 50.361 8.56009 50.361 8.00009C50.361 7.44009 50.1883 6.98409 49.8349 6.62409C49.4895 6.26409 49.0576 6.08809 48.5551 6.08809C48.0526 6.08809 47.6207 6.26409 47.2752 6.62409C46.9298 6.98409 46.757 7.44009 46.757 8.00009C46.757 8.56009 46.9298 9.01609 47.2752 9.37609Z" fill="white" stroke="white" stroke-width="0.2" stroke-miterlimit="10"></path><path d="M51.8301 10.4006V5.60059H52.5682L54.8609 9.33659H54.8845L54.8609 8.40859V5.60059H55.4655V10.4006H54.8374L52.4425 6.48859H52.419L52.4425 7.41659V10.4006H51.8301Z" fill="white" stroke="white" stroke-width="0.2" stroke-miterlimit="10"></path><path d="M56.541 10.4002V5.60016H57.1456V10.4002H56.541ZM57.1063 5.22416H56.5803L56.9258 4.36816H57.5853L57.1063 5.22416Z" fill="white" stroke="white" stroke-width="0.2" stroke-miterlimit="10"></path><path d="M59.3911 10.4006L57.7344 5.60059H58.4018L59.6895 9.49659H59.713L61.0635 5.60059H61.731L60.0193 10.4006H59.3911Z" fill="white" stroke="white" stroke-width="0.2" stroke-miterlimit="10"></path><path d="M65.17 6.19259H63.0265V7.71259H64.958V8.28859H63.0265V9.80859H65.17V10.4006H62.4219V5.60059H65.17V6.19259Z" fill="white" stroke="white" stroke-width="0.2" stroke-miterlimit="10"></path><path d="M66.1113 10.4006V5.60059H66.7159V9.80859H68.7574V10.4006H66.1113Z" fill="white" stroke="white" stroke-width="0.2" stroke-miterlimit="10"></path><path d="M71.0977 10.4006V5.60059H71.8357L74.1285 9.33659H74.152L74.1285 8.40859V5.60059H74.7331V10.4006H74.1049L71.7101 6.48859H71.6865L71.7101 7.41659V10.4006H71.0977Z" fill="white" stroke="white" stroke-width="0.2" stroke-miterlimit="10"></path><path d="M79.6653 9.77609C79.202 10.2641 78.6288 10.5041 77.9379 10.5041C77.2469 10.5041 76.6737 10.2641 76.2105 9.77609C75.7472 9.28809 75.5195 8.69609 75.5195 8.00009C75.5195 7.30409 75.7472 6.70409 76.2105 6.22409C76.6737 5.73609 77.2469 5.49609 77.9379 5.49609C78.621 5.49609 79.1942 5.73609 79.6653 6.22409C80.1285 6.71209 80.3641 7.30409 80.3641 8.00009C80.3562 8.70409 80.1285 9.29609 79.6653 9.77609ZM76.658 9.37609C77.0035 9.73609 77.4354 9.91209 77.9379 9.91209C78.4404 9.91209 78.8722 9.73609 79.2177 9.37609C79.5632 9.01609 79.7438 8.56009 79.7438 8.00009C79.7438 7.44009 79.571 6.98409 79.2177 6.62409C78.8722 6.26409 78.4404 6.08809 77.9379 6.08809C77.4354 6.08809 77.0035 6.26409 76.658 6.62409C76.3126 6.98409 76.132 7.44009 76.132 8.00009C76.132 8.56009 76.3126 9.01609 76.658 9.37609Z" fill="white" stroke="white" stroke-width="0.2" stroke-miterlimit="10"></path><defs><linearGradient id="paint0_linear" x1="17.1165" y1="6.96743" x2="3.69294" y2="20.1424" gradientUnits="userSpaceOnUse"><stop stop-color="#00A0FF"></stop><stop offset="0.00657445" stop-color="#00A1FF"></stop><stop offset="0.2601" stop-color="#00BEFF"></stop><stop offset="0.5122" stop-color="#00D2FF"></stop><stop offset="0.7604" stop-color="#00DFFF"></stop><stop offset="1" stop-color="#00E3FF"></stop></linearGradient><linearGradient id="paint1_linear" x1="26.5659" y1="16.0014" x2="7.56687" y2="16.0014" gradientUnits="userSpaceOnUse"><stop stop-color="#FFE000"></stop><stop offset="0.4087" stop-color="#FFBD00"></stop><stop offset="0.7754" stop-color="#FFA500"></stop><stop offset="1" stop-color="#FF9C00"></stop></linearGradient><linearGradient id="paint2_linear" x1="19.4956" y1="17.837" x2="1.29214" y2="35.7033" gradientUnits="userSpaceOnUse"><stop stop-color="#FF3A44"></stop><stop offset="1" stop-color="#C31162"></stop></linearGradient><linearGradient id="paint3_linear" x1="5.73158" y1="0.141032" x2="13.8602" y2="8.11908" gradientUnits="userSpaceOnUse"><stop stop-color="#32A071"></stop><stop offset="0.0685" stop-color="#2DA771"></stop><stop offset="0.4762" stop-color="#15CF74"></stop><stop offset="0.8009" stop-color="#06E775"></stop><stop offset="1" stop-color="#00F076"></stop></linearGradient></defs></svg>