<svg
  width="59"
  height="60"
  viewBox="0 0 72 72"
  fill="none"
  xmlns="http://www.w3.org/2000/svg"
>
  <path
    fillRule="evenodd"
    clipRule="evenodd"
    d="M3.19922 32.208H46.7992L59.1992 39.4548L68.3992 40.26V59.1821L6.39922 61.5976L3.19922 32.208Z"
    fill="#fff"
  />
  <path
    fillRule="evenodd"
    clipRule="evenodd"
    d="M60.9356 56.3615C60.9345 56.6763 60.9144 56.993 60.8769 57.3056C60.8153 57.8186 60.4982 58.1533 59.9832 58.1847C59.4088 58.2197 58.8274 58.2323 58.2551 58.1837C57.7181 58.1381 57.4228 57.875 57.3343 57.2531C57.2941 56.9713 57.2947 56.6827 57.2953 56.396L57.2954 56.2748C57.2945 55.2038 57.2945 54.1327 57.2946 53.0617V53.0472C57.2947 51.0521 57.2949 49.0571 57.2883 47.0619C57.2869 46.5849 57.2534 46.1022 57.1739 45.6324C57.0203 44.7251 56.5642 43.9525 55.3367 43.6219C54.1052 43.2903 52.8602 43.3 51.6149 43.5182C51.1877 43.5929 50.7726 43.7285 50.4021 43.9753C49.8674 44.3315 49.5617 44.8243 49.4035 45.4466C49.261 46.0077 49.2599 46.5739 49.2588 47.1387L49.2584 47.2959C49.2516 48.98 49.2523 50.6641 49.2531 52.3482C49.2536 53.6044 49.2542 54.8606 49.2516 56.1167C49.2508 56.5289 49.2149 56.9421 49.171 57.3523C49.1124 57.902 48.7399 58.1498 48.3092 58.1819C47.7356 58.2245 47.1518 58.2439 46.5814 58.1854C45.9038 58.1159 45.7371 57.7976 45.6264 57.2101C45.6056 57.1001 45.6062 56.9854 45.6067 56.8719L45.6068 56.8191L45.6069 54.6819C45.6068 51.9312 45.6067 49.1807 45.6123 46.43C45.6143 45.441 45.8064 44.4834 46.1908 43.5707C46.7406 42.2651 47.6897 41.3455 48.9712 40.7653C49.8404 40.3716 50.7584 40.1674 51.7066 40.0642C52.5324 39.9743 53.3569 39.9376 54.1842 39.9951C55.2716 40.0706 56.3455 40.2193 57.3699 40.6242C58.8824 41.222 59.9335 42.2628 60.4808 43.8054C60.7864 44.6666 60.9142 45.5572 60.923 46.4626C60.9338 47.5738 60.9315 48.685 60.9292 49.7962L60.9292 49.8003C60.9282 50.2668 60.9273 50.7332 60.9273 51.1996H60.9381C60.9381 51.6468 60.9383 52.094 60.9385 52.5411V52.5544C60.9391 53.8235 60.9397 55.0924 60.9356 56.3615ZM19.4557 49.0891C19.4557 48.8384 19.4578 48.5876 19.4599 48.3368L19.46 48.3358C19.4649 47.7481 19.4699 47.1605 19.4474 46.5739C19.4252 45.9956 19.2671 45.4351 18.9829 44.923C18.5098 44.0704 17.7145 43.6799 16.8092 43.521C15.5007 43.2915 14.1851 43.2832 12.8899 43.6348C12.3918 43.77 11.9396 44.0049 11.5705 44.3817C11.0836 44.8791 10.8527 45.4986 10.7678 46.1656C10.6912 46.7685 10.6641 47.3798 10.6497 47.9883C10.6305 48.8047 10.6287 49.6224 10.6497 50.4388C10.6641 51.0034 10.7006 51.5709 10.7808 52.1293C10.8553 52.6483 11.0424 53.1399 11.3735 53.5615C11.8639 54.1861 12.5422 54.4779 13.2936 54.637C14.0562 54.7986 14.8291 54.8013 15.6033 54.7865C16.2164 54.7747 16.8205 54.6925 17.4046 54.51C18.1619 54.2738 18.7576 53.8375 19.092 53.0852C19.312 52.5901 19.4405 52.0736 19.4557 51.5394C19.4719 50.9665 19.4684 50.393 19.4648 49.8196L19.4648 49.8181L19.4648 49.8106C19.4633 49.5701 19.4618 49.3295 19.4618 49.0892L19.4557 49.0891ZM35.3137 43.4441C35.8576 43.5144 36.3808 43.6468 36.8659 43.9053C37.6099 44.3019 38.0502 44.9256 38.2628 45.7373C38.3868 46.2109 38.3891 46.6848 38.3916 47.1691C38.3919 47.2439 38.3923 47.3189 38.3931 47.3941C38.0657 47.4826 30.753 47.4905 30.4138 47.4138C30.4101 47.4044 30.4051 47.3943 30.3998 47.3837C30.3877 47.3591 30.3742 47.3318 30.3729 47.304C30.3421 46.6259 30.3767 45.956 30.631 45.3145C30.923 44.5778 31.443 44.0596 32.1703 43.765C33.1837 43.3546 34.2394 43.3056 35.3137 43.4441ZM41.938 48.9565C41.9216 49.2029 41.8617 49.4545 41.7749 49.6864C41.5948 50.1675 41.1996 50.379 40.7115 50.4255C40.4521 50.4502 40.1893 50.4453 39.9279 50.4455C36.8997 50.4468 33.8715 50.4466 30.8433 50.4469H30.4556C30.4208 50.4981 30.4103 50.5065 30.4092 50.516C30.3133 51.3603 30.3569 52.1904 30.7201 52.9733C31.045 53.6737 31.6182 54.1038 32.3287 54.3648C33.0822 54.6416 33.8673 54.7487 34.6647 54.7829C36.0417 54.842 37.4063 54.7163 38.7621 54.4876C39.2765 54.4007 39.7857 54.2831 40.2974 54.1794C40.34 54.1708 40.382 54.158 40.4249 54.151C40.9109 54.0721 41.2359 54.2348 41.3393 54.7095C41.4837 55.3722 41.4631 56.0536 41.349 56.7206C41.2753 57.1509 40.9375 57.3871 40.5437 57.4966C39.9267 57.6684 39.3021 57.816 38.6752 57.9479C37.1381 58.2713 35.5794 58.2597 34.0227 58.188C32.8771 58.1352 31.7513 57.9345 30.6751 57.5213C29.351 57.0129 28.2883 56.1851 27.611 54.917C27.2869 54.3104 27.0781 53.6615 26.9415 52.9842C26.7179 51.8761 26.7116 50.7565 26.7139 49.6349C26.7163 48.4373 26.6719 47.2375 26.8213 46.0448C27.0063 44.5688 27.4684 43.2039 28.494 42.0843C29.1931 41.3212 30.0569 40.8045 31.0376 40.4906C32.5728 39.9992 34.1443 39.8742 35.7464 40.0371C36.5956 40.1234 37.4203 40.2894 38.2144 40.6079C39.7041 41.2051 40.7653 42.2388 41.3884 43.7169C41.7689 44.6195 41.931 45.5679 42.0008 46.5425C42.0589 47.3518 41.9918 48.1534 41.938 48.9565ZM23.152 50.7512C23.1547 51.6039 23.0697 52.4497 22.8668 53.2749C22.3339 55.4433 21.0436 56.9415 18.9037 57.6733C17.619 58.1127 16.2945 58.2359 14.9478 58.2224C14.2714 58.2155 13.5979 58.1834 12.9316 58.0618C11.3675 57.7764 9.94585 57.2014 8.83058 56.0171C8.19288 55.34 7.7633 54.541 7.47031 53.6625C7.13538 52.6581 7.04373 51.6223 7.04463 50.5719C7.04681 48.0449 7.04536 45.5179 7.04536 42.9909H7.04744C7.04744 40.3224 7.04681 37.6538 7.04835 34.9852C7.04844 34.7349 7.05595 34.4843 7.06999 34.2343C7.10097 33.6852 7.4666 33.2918 7.95794 33.2292C8.55814 33.1527 9.15002 33.1395 9.74533 33.2372C10.3038 33.3289 10.5394 33.6588 10.6129 34.1911C10.644 34.4165 10.6401 34.6476 10.6402 34.8762C10.6413 36.6515 10.6396 38.4268 10.6389 40.2023C10.6388 40.2677 10.6345 40.3335 10.6412 40.3982C10.6603 40.5833 10.7192 40.6203 10.899 40.5669C12.7152 40.0274 14.5633 39.8512 16.4496 40.0568C17.8443 40.2088 19.1534 40.5903 20.32 41.3983C21.1998 42.0076 21.8607 42.801 22.3321 43.7552C22.9276 44.9605 23.1376 46.2519 23.1498 47.5816C23.1595 48.638 23.1487 49.6947 23.152 50.7512ZM71.9182 47.4012C71.7854 45.7999 71.4966 44.2293 71.0159 42.6983C69.43 37.6482 66.4819 33.5926 62.1069 30.5967C59.5493 28.8455 56.7376 27.6959 53.6989 27.0813C52.5032 26.8395 51.2888 26.7676 50.0859 26.5954C47.9291 26.2865 46.0355 24.6825 45.5068 22.5622C45.3555 21.955 45.3095 21.318 45.2538 20.691C45.1419 19.4302 44.934 18.1873 44.6152 16.9636C42.7661 9.86706 37.7371 4.21733 30.874 1.53058C28.3229 0.531872 25.6712 0.0339199 22.9343 0.00158653C20.8218 -0.0234107 18.7453 0.247121 16.7043 0.803399C14.0924 1.51537 11.6885 2.66134 9.48573 4.22956C7.92594 5.33994 6.53008 6.62703 5.3044 8.10322C4.18595 9.45017 3.2241 10.8954 2.43551 12.4565C1.32187 14.6612 0.585628 16.987 0.242822 19.4325C0.108779 20.3892 -0.000901104 21.3479 0.000366871 22.3205C0.0105107 29.8587 0.00598219 37.3969 0.00598219 44.9351H0.00525763C0.00525763 52.6475 0.0114164 60.36 4.59245e-06 68.0725C-0.00225965 69.5936 0.832702 71.1035 2.58803 71.739C3.13861 71.9382 3.70729 72.0005 4.28893 72C7.43704 71.9972 10.5852 71.9979 13.7334 71.9979C25.6616 71.9979 37.5898 71.9972 49.5181 71.9992C50.8181 71.9995 52.1066 71.867 53.3815 71.6337C56.6293 71.0393 59.6141 69.7993 62.3231 67.9073C64.4403 66.4286 66.2545 64.6409 67.7583 62.5405C68.6805 61.2526 69.4446 59.8767 70.0884 58.4289C70.7551 56.9295 71.2418 55.3748 71.5642 53.7708C71.987 51.6668 72.0958 49.5423 71.9182 47.4012Z"
    fill="#000"
  />
</svg>