<svg width="32" height="32" viewBox="0 0 32 32" fill="none" xmlns="http://www.w3.org/2000/svg"><path d="M21.4659 6H11.5341C8.48912 6 6 8.54471 6 11.6515V21.3424C6 24.4553 8.48912 27 11.5341 27H21.4659C24.5109 27 27 24.4553 27 21.3485V11.6515C27 8.54471 24.5109 6 21.4659 6ZM25.1224 21.2065C25.1224 23.3621 23.3991 25.1224 21.2929 25.1224H11.7132C9.60706 25.1224 7.88382 23.3621 7.88382 21.2065V11.7935C7.88382 9.63794 9.60706 7.87765 11.7132 7.87765H21.2868C23.3929 7.87765 25.1162 9.63794 25.1162 11.7935V21.2065H25.1224Z" fill="#D6D6D6"></path><path d="M16.5 11.108C13.5847 11.108 11.2191 13.523 11.2191 16.5C11.2191 19.4771 13.5847 21.8921 16.5 21.8921C19.4153 21.8921 21.7809 19.4771 21.7809 16.5C21.7809 13.523 19.4153 11.108 16.5 11.108ZM16.5 19.9774C14.6162 19.9774 13.0968 18.4209 13.0968 16.5C13.0968 14.5791 14.6224 13.0227 16.5062 13.0227C18.39 13.0227 19.9094 14.5791 19.9094 16.5C19.9032 18.4209 18.3776 19.9774 16.5 19.9774Z" fill="#D6D6D6"></path><path d="M22.065 12.0344C22.7234 12.0344 23.2571 11.4896 23.2571 10.8176C23.2571 10.1456 22.7234 9.60088 22.065 9.60088C21.4067 9.60088 20.873 10.1456 20.873 10.8176C20.873 11.4896 21.4067 12.0344 22.065 12.0344Z" fill="#D6D6D6"></path></svg>