<svg width="24" height="24" viewBox="0 0 24 24" fill="none" xmlns="http://www.w3.org/2000/svg">
<path fill-rule="evenodd" clip-rule="evenodd" d="M14.7539 18.8447L5.22243 18.7788L5.15656 9.24735C5.14825 7.92685 5.77906 6.68009 6.84627 5.91347C7.93376 5.13149 9.33284 4.9446 10.685 5.39926C11.2441 5.58744 11.7446 5.90001 12.1717 6.32707C12.947 7.10235 13.3965 8.18856 13.4042 9.30435L13.4131 10.5881L14.5664 10.5961L14.6977 10.5978C15.8135 10.6056 16.8989 11.0543 17.6742 11.8296C18.1012 12.2566 18.4138 12.7571 18.6028 13.3171C19.0575 14.6692 18.8698 16.0675 18.0878 17.155C17.3212 18.2222 16.0752 18.8538 14.7539 18.8447ZM19.6918 12.9636C19.4386 12.2148 19.019 11.5586 18.481 11.0207C17.498 10.0376 16.1262 9.45479 14.6858 9.44484L14.5553 9.44393L14.5544 9.31343C14.5445 7.87466 13.9616 6.50125 12.9785 5.51819C12.4414 4.98108 11.7844 4.56059 11.0364 4.3083C7.35605 3.06763 3.97597 5.7447 4.00013 9.2405L4.066 18.772C4.06902 19.0909 4.19906 19.3797 4.4093 19.5899C4.61955 19.8002 4.90917 19.931 5.22727 19.9332L14.6282 19.9982L14.7596 19.9999C18.2545 20.0233 20.9324 16.644 19.6918 12.9636Z" fill="#1D1D1B"/>
</svg>
